<svg width="27" height="20" viewBox="0 0 27 20" fill="none" xmlns="http://www.w3.org/2000/svg">
<path fill-rule="evenodd" clip-rule="evenodd" d="M25.354 19.4788L18.1257 11.2321L15.3784 13.9139C14.2975 14.9688 12.7035 14.971 11.6206 13.9172L8.86757 11.2398L1.64604 19.4788C2.02307 19.6845 2.44639 19.8 2.89286 19.8H24.1071C24.5536 19.8 24.9769 19.6845 25.354 19.4788ZM26.9402 2.6268L19.5953 9.7977L26.7184 17.9223C26.8988 17.4922 27 17.0093 27 16.5V3.3C27 3.069 26.9788 2.8446 26.9402 2.6268ZM7.39607 9.8076L0.0539998 2.6642C0.0183212 2.8699 0 3.0822 0 3.3V16.5C0 17.0093 0.101257 17.4922 0.281579 17.9223L7.39607 9.8076ZM1.05685 0.7491L12.8722 12.243C13.2329 12.595 13.7642 12.5939 14.1249 12.2419L25.919 0.727095C25.4234 0.272795 24.7928 0 24.1071 0H2.89286C2.19568 0 1.55635 0.2816 1.05685 0.7491Z" fill="#515354"/>
</svg>
