<svg width="24" height="24" viewBox="0 0 24 24" fill="none" xmlns="http://www.w3.org/2000/svg">
<path d="M0.0754168 4.87114C1.3306 8.48088 3.97295 12.5809 7.69541 16.3037C11.4179 20.0266 15.5174 22.6693 19.1267 23.9246C19.617 24.0943 20.1584 23.9731 20.5274 23.6067L23.6061 20.5277C24.1313 20.0024 24.1313 19.1484 23.6061 18.6231L19.7409 14.7602C19.2156 14.2349 18.3618 14.2349 17.8365 14.7602L16.7888 15.8081C16.2447 16.3522 15.3774 16.4061 14.7686 15.932C13.5646 14.9945 12.3714 13.9413 11.2159 12.7856C10.0604 11.6299 9.00718 10.4366 8.06983 9.23243C7.59575 8.62362 7.64962 7.7589 8.19374 7.21205L9.24152 6.16416C9.76676 5.63886 9.76676 4.78491 9.24152 4.25962L5.37631 0.393973C4.85107 -0.131324 3.99722 -0.131324 3.47198 0.393973L0.39328 3.47302C0.0269333 3.83941 -0.0942754 4.38087 0.0754168 4.87114Z" fill="#515354"/>
</svg>
