<svg width="28" height="28" viewBox="0 0 28 28" fill="none" xmlns="http://www.w3.org/2000/svg">
<path d="M14 26C20.6274 26 26 20.6274 26 14C26 7.37258 20.6274 2 14 2C7.37258 2 2 7.37258 2 14C2 20.6274 7.37258 26 14 26Z" stroke="#515354" stroke-width="3" stroke-linecap="round" stroke-linejoin="round"/>
<path d="M9.20002 3.20007H10.4C8.06002 10.2081 8.06002 17.7921 10.4 24.8001H9.20002" stroke="#515354" stroke-width="3" stroke-linecap="round" stroke-linejoin="round"/>
<path d="M17.5996 3.20007C19.9396 10.2081 19.9396 17.7921 17.5996 24.8001" stroke="#515354" stroke-width="3" stroke-linecap="round" stroke-linejoin="round"/>
<path d="M3.19971 18.8001V17.6001C10.2077 19.9401 17.7917 19.9401 24.7997 17.6001V18.8001" stroke="#515354" stroke-width="3" stroke-linecap="round" stroke-linejoin="round"/>
<path d="M3.19971 10.4C10.2077 8.06002 17.7917 8.06002 24.7997 10.4" stroke="#515354" stroke-width="3" stroke-linecap="round" stroke-linejoin="round"/>
</svg>
