<svg width="40" height="40" viewBox="0 0 40 40" fill="none" xmlns="http://www.w3.org/2000/svg">
<path d="M40 20C40 8.95431 31.0457 2.45765e-06 20 2.94047e-06C8.9543 3.42329e-06 -1.35705e-06 8.95431 -8.74228e-07 20C-3.91405e-07 31.0457 8.95431 40 20 40C31.0457 40 40 31.0457 40 20Z" fill="#EE562F"/>
<path d="M9.19043 31.2903L10.8637 25.0721C9.91401 23.3649 9.42788 21.4542 9.42788 19.5209C9.42788 13.1896 14.5833 8.03418 20.9146 8.03418C27.2458 8.03418 32.4013 13.1896 32.4013 19.5209C32.4013 25.8522 27.2458 31.0076 20.9146 31.0076C19.0152 31.0076 17.1384 30.5328 15.4539 29.617L9.20175 31.2903H9.19043ZM15.7591 27.288L16.1548 27.5254C17.602 28.3846 19.2413 28.8369 20.9146 28.8369C26.0474 28.8369 30.2306 24.6537 30.2306 19.5209C30.2306 14.3881 26.0474 10.2049 20.9146 10.2049C15.7817 10.2049 11.5986 14.3881 11.5986 19.5209C11.5986 21.2168 12.0734 22.89 12.9666 24.3485L13.204 24.7442L12.2769 28.2151L15.7704 27.2767L15.7591 27.288Z" fill="white"/>
<path fill-rule="evenodd" clip-rule="evenodd" d="M25.1767 21.1149C24.7018 20.8323 24.0913 20.5157 23.526 20.7418C23.0964 20.9114 22.8251 21.5898 22.5537 21.9289C22.4067 22.1098 22.2372 22.1324 22.0223 22.042C20.4169 21.3975 19.1846 20.3348 18.3027 18.8537C18.1557 18.6276 18.1784 18.4467 18.3593 18.2319C18.6306 17.9153 18.9585 17.5649 19.0376 17.1352C19.1055 16.7056 18.9132 16.2195 18.7324 15.8351C18.5062 15.3489 18.2575 14.6593 17.7713 14.3879C17.3304 14.1392 16.7425 14.2749 16.3468 14.6027C15.6685 15.1567 15.3293 16.0273 15.3406 16.8978C15.3406 17.1465 15.3745 17.384 15.4311 17.6214C15.5667 18.1867 15.8381 18.7294 16.132 19.2268C16.3581 19.6112 16.5955 19.9843 16.8556 20.3348C17.7148 21.4993 18.7776 22.5168 20.0212 23.2743C20.6431 23.6474 21.2988 23.9866 21.9884 24.2127C22.7572 24.4727 23.4469 24.7328 24.2835 24.5745C25.1541 24.4049 26.0133 23.8735 26.3638 23.0256C26.4655 22.7769 26.5221 22.4942 26.4655 22.2342C26.3525 21.6915 25.6063 21.3636 25.1654 21.1036L25.1767 21.1149Z" fill="white"/>
</svg>
