<svg width="109" height="108" viewBox="0 0 109 108" fill="none" xmlns="http://www.w3.org/2000/svg">
<rect x="0.507812" width="108" height="108" rx="7.19614" fill="#EE562F"/>
<path d="M39.0142 13H36.1048V15.9094H39.0142V13Z" fill="white"/>
<path d="M41.8393 13H38.9299V15.9094H41.8393V13Z" fill="white"/>
<path d="M53.1398 13H50.2304V15.9094H53.1398V13Z" fill="white"/>
<path d="M55.961 13H53.0516V15.9094H55.961V13Z" fill="white"/>
<path d="M58.7861 13H55.8767V15.9094H58.7861V13Z" fill="white"/>
<path d="M64.4363 13H61.5269V15.9094H64.4363V13Z" fill="white"/>
<path d="M67.2614 13H64.352V15.9094H67.2614V13Z" fill="white"/>
<path d="M72.9116 13H70.0022V15.9094H72.9116V13Z" fill="white"/>
<path d="M39.0142 15.8241H36.1048V18.7335H39.0142V15.8241Z" fill="white"/>
<path d="M47.4895 15.8241H44.5801V18.7335H47.4895V15.8241Z" fill="white"/>
<path d="M58.7861 15.8241H55.8767V18.7335H58.7861V15.8241Z" fill="white"/>
<path d="M61.6112 15.8241H58.7018V18.7335H61.6112V15.8241Z" fill="white"/>
<path d="M70.0865 15.8241H67.1771V18.7335H70.0865V15.8241Z" fill="white"/>
<path d="M39.0142 18.6493H36.1048V21.5587H39.0142V18.6493Z" fill="white"/>
<path d="M50.3146 18.6493H47.4052V21.5587H50.3146V18.6493Z" fill="white"/>
<path d="M53.1398 18.6493H50.2304V21.5587H53.1398V18.6493Z" fill="white"/>
<path d="M58.7861 18.6493H55.8767V21.5587H58.7861V18.6493Z" fill="white"/>
<path d="M70.0865 18.6493H67.1771V21.5587H70.0865V18.6493Z" fill="white"/>
<path d="M72.9116 18.6493H70.0022V21.5587H72.9116V18.6493Z" fill="white"/>
<path d="M44.6644 21.4734H41.755V24.3828H44.6644V21.4734Z" fill="white"/>
<path d="M47.4895 21.4734H44.5801V24.3828H47.4895V21.4734Z" fill="white"/>
<path d="M55.961 21.4734H53.0516V24.3828H55.961V21.4734Z" fill="white"/>
<path d="M64.4365 21.4736H61.5271V24.383H64.4365V21.4736Z" fill="white"/>
<path d="M70.0865 21.4734H67.1771V24.3828H70.0865V21.4734Z" fill="white"/>
<path d="M47.4895 24.2985H44.5801V27.2079H47.4895V24.2985Z" fill="white"/>
<path d="M50.3146 24.2985H47.4052V27.2079H50.3146V24.2985Z" fill="white"/>
<path d="M58.7861 24.2985H55.8767V27.2079H58.7861V24.2985Z" fill="white"/>
<path d="M67.2614 24.2985H64.352V27.2079H67.2614V24.2985Z" fill="white"/>
<path d="M70.0865 24.2985H67.1771V27.2079H70.0865V24.2985Z" fill="white"/>
<path d="M72.9116 24.2985H70.0022V27.2079H72.9116V24.2985Z" fill="white"/>
<path d="M39.0142 27.1227H36.1048V30.0321H39.0142V27.1227Z" fill="white"/>
<path d="M41.8393 27.1227H38.9299V30.0321H41.8393V27.1227Z" fill="white"/>
<path d="M53.1398 27.1227H50.2304V30.0321H53.1398V27.1227Z" fill="white"/>
<path d="M55.961 27.1227H53.0516V30.0321H55.961V27.1227Z" fill="white"/>
<path d="M61.6112 27.1227H58.7018V30.0321H61.6112V27.1227Z" fill="white"/>
<path d="M67.2614 27.1227H64.352V30.0321H67.2614V27.1227Z" fill="white"/>
<path d="M39.0142 29.9478H36.1048V32.8572H39.0142V29.9478Z" fill="white"/>
<path d="M44.6644 29.9478H41.755V32.8572H44.6644V29.9478Z" fill="white"/>
<path d="M50.3146 29.9478H47.4052V32.8572H50.3146V29.9478Z" fill="white"/>
<path d="M55.961 29.9478H53.0516V32.8572H55.961V29.9478Z" fill="white"/>
<path d="M61.6112 29.9478H58.7018V32.8572H61.6112V29.9478Z" fill="white"/>
<path d="M67.2612 29.9476H64.3518V32.857H67.2612V29.9476Z" fill="white"/>
<path d="M72.9116 29.9478H70.0022V32.8572H72.9116V29.9478Z" fill="white"/>
<path d="M39.0142 32.7719H36.1048V35.6813H39.0142V32.7719Z" fill="white"/>
<path d="M44.6644 32.7719H41.755V35.6813H44.6644V32.7719Z" fill="white"/>
<path d="M47.4895 32.7719H44.5801V35.6813H47.4895V32.7719Z" fill="white"/>
<path d="M50.3146 32.7719H47.4052V35.6813H50.3146V32.7719Z" fill="white"/>
<path d="M58.7861 32.7719H55.8767V35.6813H58.7861V32.7719Z" fill="white"/>
<path d="M61.6112 32.7719H58.7018V35.6813H61.6112V32.7719Z" fill="white"/>
<path d="M70.0865 32.7719H67.1771V35.6813H70.0865V32.7719Z" fill="white"/>
<path d="M72.9116 32.7719H70.0022V35.6813H72.9116V32.7719Z" fill="white"/>
<path d="M22.0675 35.597H19.1581V38.5064H22.0675V35.597Z" fill="white"/>
<path d="M24.8926 35.597H21.9832V38.5064H24.8926V35.597Z" fill="white"/>
<path d="M27.7177 35.597H24.8083V38.5064H27.7177V35.597Z" fill="white"/>
<path d="M33.364 35.597H30.4546V38.5064H33.364V35.597Z" fill="white"/>
<path d="M39.0142 35.597H36.1048V38.5064H39.0142V35.597Z" fill="white"/>
<path d="M55.961 35.597H53.0516V38.5064H55.961V35.597Z" fill="white"/>
<path d="M67.2612 35.5969H64.3518V38.5063H67.2612V35.5969Z" fill="white"/>
<path d="M70.0865 35.597H67.1771V38.5064H70.0865V35.597Z" fill="white"/>
<path d="M75.7367 35.597H72.8273V38.5064H75.7367V35.597Z" fill="white"/>
<path d="M78.5579 35.597H75.6485V38.5064H78.5579V35.597Z" fill="white"/>
<path d="M81.383 35.597H78.4736V38.5064H81.383V35.597Z" fill="white"/>
<path d="M89.8585 35.5969H86.9491V38.5063H89.8585V35.5969Z" fill="white"/>
<path d="M92.6835 35.597H89.7741V38.5064H92.6835V35.597Z" fill="white"/>
<path d="M95.5086 35.597H92.5992V38.5064H95.5086V35.597Z" fill="white"/>
<path d="M16.4172 38.4212H13.5078V41.3306H16.4172V38.4212Z" fill="white"/>
<path d="M27.7177 38.4212H24.8083V41.3306H27.7177V38.4212Z" fill="white"/>
<path d="M30.5389 38.4212H27.6295V41.3306H30.5389V38.4212Z" fill="white"/>
<path d="M36.1891 38.4212H33.2797V41.3306H36.1891V38.4212Z" fill="white"/>
<path d="M39.0142 38.4212H36.1048V41.3306H39.0142V38.4212Z" fill="white"/>
<path d="M44.6644 38.4212H41.755V41.3306H44.6644V38.4212Z" fill="white"/>
<path d="M47.4895 38.4212H44.5801V41.3306H47.4895V38.4212Z" fill="white"/>
<path d="M50.3146 38.4212H47.4052V41.3306H50.3146V38.4212Z" fill="white"/>
<path d="M55.961 38.4212H53.0516V41.3306H55.961V38.4212Z" fill="white"/>
<path d="M58.7861 38.4212H55.8767V41.3306H58.7861V38.4212Z" fill="white"/>
<path d="M64.4363 38.4212H61.5269V41.3306H64.4363V38.4212Z" fill="white"/>
<path d="M87.0333 38.4212H84.1239V41.3306H87.0333V38.4212Z" fill="white"/>
<path d="M95.5086 38.4212H92.5992V41.3306H95.5086V38.4212Z" fill="white"/>
<path d="M16.4172 41.2463H13.5078V44.1557H16.4172V41.2463Z" fill="white"/>
<path d="M19.2424 41.2463H16.3329V44.1557H19.2424V41.2463Z" fill="white"/>
<path d="M30.5389 41.2463H27.6295V44.1557H30.5389V41.2463Z" fill="white"/>
<path d="M33.364 41.2463H30.4546V44.1557H33.364V41.2463Z" fill="white"/>
<path d="M39.0142 41.2463H36.1048V44.1557H39.0142V41.2463Z" fill="white"/>
<path d="M50.3146 41.2463H47.4052V44.1557H50.3146V41.2463Z" fill="white"/>
<path d="M53.1398 41.2463H50.2304V44.1557H53.1398V41.2463Z" fill="white"/>
<path d="M78.5579 41.2463H75.6485V44.1557H78.5579V41.2463Z" fill="white"/>
<path d="M81.383 41.2463H78.4736V44.1557H81.383V41.2463Z" fill="white"/>
<path d="M87.0333 41.2463H84.1239V44.1557H87.0333V41.2463Z" fill="white"/>
<path d="M89.8585 41.2463H86.9491V44.1557H89.8585V41.2463Z" fill="white"/>
<path d="M19.2424 44.0714H16.3329V46.9808H19.2424V44.0714Z" fill="white"/>
<path d="M24.8926 44.0714H21.9832V46.9808H24.8926V44.0714Z" fill="white"/>
<path d="M36.1891 44.0714H33.2797V46.9808H36.1891V44.0714Z" fill="white"/>
<path d="M39.0142 44.0714H36.1048V46.9808H39.0142V44.0714Z" fill="white"/>
<path d="M44.6644 44.0714H41.755V46.9808H44.6644V44.0714Z" fill="white"/>
<path d="M47.4895 44.0714H44.5801V46.9808H47.4895V44.0714Z" fill="white"/>
<path d="M50.3146 44.0714H47.4052V46.9808H50.3146V44.0714Z" fill="white"/>
<path d="M55.961 44.0714H53.0516V46.9808H55.961V44.0714Z" fill="white"/>
<path d="M61.6112 44.0714H58.7018V46.9808H61.6112V44.0714Z" fill="white"/>
<path d="M78.5579 44.0714H75.6485V46.9808H78.5579V44.0714Z" fill="white"/>
<path d="M81.383 44.0714H78.4736V46.9808H81.383V44.0714Z" fill="white"/>
<path d="M89.8584 44.0714H86.949V46.9808H89.8584V44.0714Z" fill="white"/>
<path d="M92.6835 44.0714H89.7741V46.9808H92.6835V44.0714Z" fill="white"/>
<path d="M19.2424 46.8956H16.3329V49.805H19.2424V46.8956Z" fill="white"/>
<path d="M22.0675 46.8956H19.1581V49.805H22.0675V46.8956Z" fill="white"/>
<path d="M24.8926 46.8956H21.9832V49.805H24.8926V46.8956Z" fill="white"/>
<path d="M33.364 46.8956H30.4546V49.805H33.364V46.8956Z" fill="white"/>
<path d="M39.0142 46.8956H36.1048V49.805H39.0142V46.8956Z" fill="white"/>
<path d="M41.8392 46.8956H38.9298V49.805H41.8392V46.8956Z" fill="white"/>
<path d="M44.6644 46.8956H41.755V49.805H44.6644V46.8956Z" fill="white"/>
<path d="M47.4895 46.8956H44.5801V49.805H47.4895V46.8956Z" fill="white"/>
<path d="M50.3146 46.8956H47.4052V49.805H50.3146V46.8956Z" fill="white"/>
<path d="M53.1398 46.8956H50.2304V49.805H53.1398V46.8956Z" fill="white"/>
<path d="M58.7861 46.8956H55.8767V49.805H58.7861V46.8956Z" fill="white"/>
<path d="M67.2612 46.8956H64.3518V49.805H67.2612V46.8956Z" fill="white"/>
<path d="M75.7367 46.8956H72.8273V49.805H75.7367V46.8956Z" fill="white"/>
<path d="M87.0333 46.8956H84.1239V49.805H87.0333V46.8956Z" fill="white"/>
<path d="M89.8585 46.8956H86.9491V49.805H89.8585V46.8956Z" fill="white"/>
<path d="M92.6835 46.8956H89.7741V49.805H92.6835V46.8956Z" fill="white"/>
<path d="M95.5086 46.8956H92.5992V49.805H95.5086V46.8956Z" fill="white"/>
<path d="M24.8926 49.7207H21.9832V52.6301H24.8926V49.7207Z" fill="white"/>
<path d="M30.5389 49.7207H27.6295V52.6301H30.5389V49.7207Z" fill="white"/>
<path d="M36.1891 49.7207H33.2797V52.6301H36.1891V49.7207Z" fill="white"/>
<path d="M39.0142 49.7207H36.1048V52.6301H39.0142V49.7207Z" fill="white"/>
<path d="M44.6644 49.7207H41.755V52.6301H44.6644V49.7207Z" fill="white"/>
<path d="M47.4895 49.7207H44.5801V52.6301H47.4895V49.7207Z" fill="white"/>
<path d="M53.1398 49.7207H50.2304V52.6301H53.1398V49.7207Z" fill="white"/>
<path d="M55.961 49.7207H53.0516V52.6301H55.961V49.7207Z" fill="white"/>
<path d="M64.4363 49.7207H61.5269V52.6301H64.4363V49.7207Z" fill="white"/>
<path d="M67.2614 49.7207H64.352V52.6301H67.2614V49.7207Z" fill="white"/>
<path d="M70.0865 49.7207H67.1771V52.6301H70.0865V49.7207Z" fill="white"/>
<path d="M75.7367 49.7207H72.8273V52.6301H75.7367V49.7207Z" fill="white"/>
<path d="M78.5579 49.7207H75.6485V52.6301H78.5579V49.7207Z" fill="white"/>
<path d="M84.2082 49.7207H81.2988V52.6301H84.2082V49.7207Z" fill="white"/>
<path d="M87.0333 49.7207H84.1239V52.6301H87.0333V49.7207Z" fill="white"/>
<path d="M16.4172 52.5449H13.5078V55.4543H16.4172V52.5449Z" fill="white"/>
<path d="M19.2424 52.5448H16.3329V55.4542H19.2424V52.5448Z" fill="white"/>
<path d="M22.0675 52.5448H19.1581V55.4542H22.0675V52.5448Z" fill="white"/>
<path d="M27.7177 52.5448H24.8083V55.4542H27.7177V52.5448Z" fill="white"/>
<path d="M30.5389 52.5448H27.6295V55.4542H30.5389V52.5448Z" fill="white"/>
<path d="M33.364 52.5448H30.4546V55.4542H33.364V52.5448Z" fill="white"/>
<path d="M36.1891 52.5448H33.2797V55.4542H36.1891V52.5448Z" fill="white"/>
<path d="M39.0142 52.5448H36.1048V55.4542H39.0142V52.5448Z" fill="white"/>
<path d="M44.6644 52.5448H41.755V55.4542H44.6644V52.5448Z" fill="white"/>
<path d="M50.3146 52.5448H47.4052V55.4542H50.3146V52.5448Z" fill="white"/>
<path d="M53.1398 52.5448H50.2304V55.4542H53.1398V52.5448Z" fill="white"/>
<path d="M58.7861 52.5448H55.8767V55.4542H58.7861V52.5448Z" fill="white"/>
<path d="M61.6112 52.5448H58.7018V55.4542H61.6112V52.5448Z" fill="white"/>
<path d="M64.4365 52.5449H61.5271V55.4543H64.4365V52.5449Z" fill="white"/>
<path d="M72.9116 52.5448H70.0022V55.4542H72.9116V52.5448Z" fill="white"/>
<path d="M75.7367 52.5448H72.8273V55.4542H75.7367V52.5448Z" fill="white"/>
<path d="M92.6835 52.5448H89.7741V55.4542H92.6835V52.5448Z" fill="white"/>
<path d="M22.0675 55.3699H19.1581V58.2793H22.0675V55.3699Z" fill="white"/>
<path d="M30.5389 55.3699H27.6295V58.2793H30.5389V55.3699Z" fill="white"/>
<path d="M44.6644 55.3699H41.755V58.2793H44.6644V55.3699Z" fill="white"/>
<path d="M50.3146 55.3699H47.4052V58.2793H50.3146V55.3699Z" fill="white"/>
<path d="M53.1398 55.3699H50.2304V58.2793H53.1398V55.3699Z" fill="white"/>
<path d="M58.7861 55.3699H55.8767V58.2793H58.7861V55.3699Z" fill="white"/>
<path d="M64.4363 55.3699H61.5269V58.2793H64.4363V55.3699Z" fill="white"/>
<path d="M75.7367 55.3699H72.8273V58.2793H75.7367V55.3699Z" fill="white"/>
<path d="M87.0333 55.3699H84.1239V58.2793H87.0333V55.3699Z" fill="white"/>
<path d="M92.6835 55.3699H89.7741V58.2793H92.6835V55.3699Z" fill="white"/>
<path d="M22.0675 58.1941H19.1581V61.1035H22.0675V58.1941Z" fill="white"/>
<path d="M30.5389 58.1941H27.6295V61.1035H30.5389V58.1941Z" fill="white"/>
<path d="M33.364 58.1941H30.4546V61.1035H33.364V58.1941Z" fill="white"/>
<path d="M39.0142 58.1941H36.1048V61.1035H39.0142V58.1941Z" fill="white"/>
<path d="M44.6644 58.1941H41.755V61.1035H44.6644V58.1941Z" fill="white"/>
<path d="M50.3146 58.1941H47.4052V61.1035H50.3146V58.1941Z" fill="white"/>
<path d="M53.1398 58.1941H50.2304V61.1035H53.1398V58.1941Z" fill="white"/>
<path d="M67.2612 58.1943H64.3518V61.1037H67.2612V58.1943Z" fill="white"/>
<path d="M78.5579 58.1941H75.6485V61.1035H78.5579V58.1941Z" fill="white"/>
<path d="M81.383 58.1941H78.4736V61.1035H81.383V58.1941Z" fill="white"/>
<path d="M84.2082 58.1941H81.2988V61.1035H84.2082V58.1941Z" fill="white"/>
<path d="M87.0333 58.1941H84.1239V61.1035H87.0333V58.1941Z" fill="white"/>
<path d="M89.8585 58.1943H86.9491V61.1037H89.8585V58.1943Z" fill="white"/>
<path d="M92.6835 58.1941H89.7741V61.1035H92.6835V58.1941Z" fill="white"/>
<path d="M16.4172 61.0192H13.5078V63.9286H16.4172V61.0192Z" fill="white"/>
<path d="M19.2424 61.0192H16.3329V63.9286H19.2424V61.0192Z" fill="white"/>
<path d="M22.0675 61.0192H19.1581V63.9286H22.0675V61.0192Z" fill="white"/>
<path d="M24.8926 61.0192H21.9832V63.9286H24.8926V61.0192Z" fill="white"/>
<path d="M27.7177 61.0192H24.8083V63.9286H27.7177V61.0192Z" fill="white"/>
<path d="M30.5389 61.0192H27.6295V63.9286H30.5389V61.0192Z" fill="white"/>
<path d="M39.0142 61.0192H36.1048V63.9286H39.0142V61.0192Z" fill="white"/>
<path d="M41.8393 61.0192H38.9299V63.9286H41.8393V61.0192Z" fill="white"/>
<path d="M44.6644 61.0192H41.755V63.9286H44.6644V61.0192Z" fill="white"/>
<path d="M53.1398 61.0192H50.2304V63.9286H53.1398V61.0192Z" fill="white"/>
<path d="M64.4363 61.0192H61.5269V63.9286H64.4363V61.0192Z" fill="white"/>
<path d="M70.0865 61.0192H67.1771V63.9286H70.0865V61.0192Z" fill="white"/>
<path d="M72.9116 61.0192H70.0022V63.9286H72.9116V61.0192Z" fill="white"/>
<path d="M78.5579 61.0192H75.6485V63.9286H78.5579V61.0192Z" fill="white"/>
<path d="M84.2082 61.0192H81.2988V63.9286H84.2082V61.0192Z" fill="white"/>
<path d="M87.0333 61.0192H84.1239V63.9286H87.0333V61.0192Z" fill="white"/>
<path d="M92.6835 61.0192H89.7741V63.9286H92.6835V61.0192Z" fill="white"/>
<path d="M95.5086 61.0192H92.5992V63.9286H95.5086V61.0192Z" fill="white"/>
<path d="M16.4172 63.8433H13.5078V66.7527H16.4172V63.8433Z" fill="white"/>
<path d="M22.0675 63.8433H19.1581V66.7527H22.0675V63.8433Z" fill="white"/>
<path d="M30.5389 63.8433H27.6295V66.7527H30.5389V63.8433Z" fill="white"/>
<path d="M33.364 63.8433H30.4546V66.7527H33.364V63.8433Z" fill="white"/>
<path d="M36.1891 63.8433H33.2797V66.7527H36.1891V63.8433Z" fill="white"/>
<path d="M39.0142 63.8433H36.1048V66.7527H39.0142V63.8433Z" fill="white"/>
<path d="M41.8393 63.8433H38.9299V66.7527H41.8393V63.8433Z" fill="white"/>
<path d="M55.961 63.8433H53.0516V66.7527H55.961V63.8433Z" fill="white"/>
<path d="M64.4363 63.8433H61.5269V66.7527H64.4363V63.8433Z" fill="white"/>
<path d="M78.5579 63.8433H75.6485V66.7527H78.5579V63.8433Z" fill="white"/>
<path d="M81.383 63.8433H78.4736V66.7527H81.383V63.8433Z" fill="white"/>
<path d="M87.0333 63.8433H84.1239V66.7527H87.0333V63.8433Z" fill="white"/>
<path d="M89.8584 63.8433H86.949V66.7527H89.8584V63.8433Z" fill="white"/>
<path d="M16.4172 66.6683H13.5078V69.5777H16.4172V66.6683Z" fill="white"/>
<path d="M24.8926 66.6684H21.9832V69.5779H24.8926V66.6684Z" fill="white"/>
<path d="M36.1891 66.6684H33.2797V69.5779H36.1891V66.6684Z" fill="white"/>
<path d="M41.8392 66.6683H38.9298V69.5777H41.8392V66.6683Z" fill="white"/>
<path d="M47.4895 66.6684H44.5801V69.5779H47.4895V66.6684Z" fill="white"/>
<path d="M53.1398 66.6684H50.2304V69.5779H53.1398V66.6684Z" fill="white"/>
<path d="M58.7861 66.6684H55.8767V69.5779H58.7861V66.6684Z" fill="white"/>
<path d="M64.4365 66.6683H61.5271V69.5777H64.4365V66.6683Z" fill="white"/>
<path d="M70.0865 66.6684H67.1771V69.5779H70.0865V66.6684Z" fill="white"/>
<path d="M78.5579 66.6684H75.6485V69.5779H78.5579V66.6684Z" fill="white"/>
<path d="M81.383 66.6684H78.4736V69.5779H81.383V66.6684Z" fill="white"/>
<path d="M92.6835 66.6684H89.7741V69.5779H92.6835V66.6684Z" fill="white"/>
<path d="M16.4172 69.4926H13.5078V72.402H16.4172V69.4926Z" fill="white"/>
<path d="M24.8926 69.4926H21.9832V72.402H24.8926V69.4926Z" fill="white"/>
<path d="M27.7177 69.4926H24.8083V72.402H27.7177V69.4926Z" fill="white"/>
<path d="M33.364 69.4926H30.4546V72.402H33.364V69.4926Z" fill="white"/>
<path d="M36.1891 69.4926H33.2797V72.402H36.1891V69.4926Z" fill="white"/>
<path d="M39.0142 69.4926H36.1048V72.402H39.0142V69.4926Z" fill="white"/>
<path d="M44.6644 69.4926H41.755V72.402H44.6644V69.4926Z" fill="white"/>
<path d="M50.3146 69.4926H47.4052V72.402H50.3146V69.4926Z" fill="white"/>
<path d="M53.1398 69.4926H50.2304V72.402H53.1398V69.4926Z" fill="white"/>
<path d="M61.6112 69.4926H58.7018V72.402H61.6112V69.4926Z" fill="white"/>
<path d="M64.4363 69.4926H61.5269V72.402H64.4363V69.4926Z" fill="white"/>
<path d="M72.9116 69.4926H70.0022V72.402H72.9116V69.4926Z" fill="white"/>
<path d="M75.7367 69.4926H72.8273V72.402H75.7367V69.4926Z" fill="white"/>
<path d="M78.5579 69.4926H75.6485V72.402H78.5579V69.4926Z" fill="white"/>
<path d="M81.383 69.4926H78.4736V72.402H81.383V69.4926Z" fill="white"/>
<path d="M84.2082 69.4926H81.2988V72.402H84.2082V69.4926Z" fill="white"/>
<path d="M87.0333 69.4926H84.1239V72.402H87.0333V69.4926Z" fill="white"/>
<path d="M95.5086 69.4926H92.5992V72.402H95.5086V69.4926Z" fill="white"/>
<path d="M39.0142 72.3177H36.1048V75.2271H39.0142V72.3177Z" fill="white"/>
<path d="M41.8392 72.3176H38.9298V75.227H41.8392V72.3176Z" fill="white"/>
<path d="M44.6644 72.3177H41.755V75.2271H44.6644V72.3177Z" fill="white"/>
<path d="M47.4895 72.3177H44.5801V75.2271H47.4895V72.3177Z" fill="white"/>
<path d="M50.3146 72.3177H47.4052V75.2271H50.3146V72.3177Z" fill="white"/>
<path d="M53.1398 72.3177H50.2304V75.2271H53.1398V72.3177Z" fill="white"/>
<path d="M55.961 72.3177H53.0516V75.2271H55.961V72.3177Z" fill="white"/>
<path d="M67.2612 72.3176H64.3518V75.227H67.2612V72.3176Z" fill="white"/>
<path d="M72.9116 72.3177H70.0022V75.2271H72.9116V72.3177Z" fill="white"/>
<path d="M84.2082 72.3177H81.2988V75.2271H84.2082V72.3177Z" fill="white"/>
<path d="M87.0333 72.3177H84.1239V75.2271H87.0333V72.3177Z" fill="white"/>
<path d="M92.6835 72.3177H89.7741V75.2271H92.6835V72.3177Z" fill="white"/>
<path d="M95.5086 72.3177H92.5992V75.2271H95.5086V72.3177Z" fill="white"/>
<path d="M41.8393 75.1418H38.9299V78.0513H41.8393V75.1418Z" fill="white"/>
<path d="M50.3146 75.1418H47.4052V78.0513H50.3146V75.1418Z" fill="white"/>
<path d="M53.1398 75.1418H50.2304V78.0513H53.1398V75.1418Z" fill="white"/>
<path d="M55.961 75.1418H53.0516V78.0513H55.961V75.1418Z" fill="white"/>
<path d="M67.2614 75.1418H64.352V78.0513H67.2614V75.1418Z" fill="white"/>
<path d="M70.0865 75.1418H67.1771V78.0513H70.0865V75.1418Z" fill="white"/>
<path d="M72.9116 75.1418H70.0022V78.0513H72.9116V75.1418Z" fill="white"/>
<path d="M78.5579 75.1418H75.6485V78.0513H78.5579V75.1418Z" fill="white"/>
<path d="M84.2082 75.1418H81.2988V78.0513H84.2082V75.1418Z" fill="white"/>
<path d="M92.6835 75.1418H89.7741V78.0513H92.6835V75.1418Z" fill="white"/>
<path d="M41.8392 77.9669H38.9298V80.8764H41.8392V77.9669Z" fill="white"/>
<path d="M44.6644 77.967H41.755V80.8764H44.6644V77.967Z" fill="white"/>
<path d="M47.4895 77.967H44.5801V80.8764H47.4895V77.967Z" fill="white"/>
<path d="M50.3146 77.967H47.4052V80.8764H50.3146V77.967Z" fill="white"/>
<path d="M58.7861 77.967H55.8767V80.8764H58.7861V77.967Z" fill="white"/>
<path d="M67.2612 77.9669H64.3518V80.8764H67.2612V77.9669Z" fill="white"/>
<path d="M70.0865 77.967H67.1771V80.8764H70.0865V77.967Z" fill="white"/>
<path d="M72.9116 77.967H70.0022V80.8764H72.9116V77.967Z" fill="white"/>
<path d="M84.2082 77.967H81.2988V80.8764H84.2082V77.967Z" fill="white"/>
<path d="M87.0333 77.967H84.1239V80.8764H87.0333V77.967Z" fill="white"/>
<path d="M39.0142 80.7921H36.1048V83.7015H39.0142V80.7921Z" fill="white"/>
<path d="M47.4895 80.7921H44.5801V83.7015H47.4895V80.7921Z" fill="white"/>
<path d="M50.3146 80.7921H47.4052V83.7015H50.3146V80.7921Z" fill="white"/>
<path d="M61.6112 80.7921H58.7018V83.7015H61.6112V80.7921Z" fill="white"/>
<path d="M72.9116 80.7921H70.0022V83.7015H72.9116V80.7921Z" fill="white"/>
<path d="M75.7367 80.7921H72.8273V83.7015H75.7367V80.7921Z" fill="white"/>
<path d="M78.5579 80.7921H75.6485V83.7015H78.5579V80.7921Z" fill="white"/>
<path d="M81.383 80.7921H78.4736V83.7015H81.383V80.7921Z" fill="white"/>
<path d="M84.2082 80.7921H81.2988V83.7015H84.2082V80.7921Z" fill="white"/>
<path d="M87.0333 80.7921H84.1239V83.7015H87.0333V80.7921Z" fill="white"/>
<path d="M89.8584 80.7921H86.949V83.7015H89.8584V80.7921Z" fill="white"/>
<path d="M39.0142 83.6162H36.1048V86.5256H39.0142V83.6162Z" fill="white"/>
<path d="M44.6644 83.6162H41.755V86.5256H44.6644V83.6162Z" fill="white"/>
<path d="M47.4895 83.6162H44.5801V86.5256H47.4895V83.6162Z" fill="white"/>
<path d="M50.3146 83.6162H47.4052V86.5256H50.3146V83.6162Z" fill="white"/>
<path d="M53.1398 83.6162H50.2304V86.5256H53.1398V83.6162Z" fill="white"/>
<path d="M55.961 83.6162H53.0516V86.5256H55.961V83.6162Z" fill="white"/>
<path d="M58.7861 83.6162H55.8767V86.5256H58.7861V83.6162Z" fill="white"/>
<path d="M61.6112 83.6162H58.7018V86.5256H61.6112V83.6162Z" fill="white"/>
<path d="M64.4365 83.6163H61.5271V86.5257H64.4365V83.6163Z" fill="white"/>
<path d="M67.2612 83.6163H64.3518V86.5257H67.2612V83.6163Z" fill="white"/>
<path d="M70.0865 83.6162H67.1771V86.5256H70.0865V83.6162Z" fill="white"/>
<path d="M72.9116 83.6162H70.0022V86.5256H72.9116V83.6162Z" fill="white"/>
<path d="M81.383 83.6162H78.4736V86.5256H81.383V83.6162Z" fill="white"/>
<path d="M92.6835 83.6162H89.7741V86.5256H92.6835V83.6162Z" fill="white"/>
<path d="M39.0142 86.4414H36.1048V89.3508H39.0142V86.4414Z" fill="white"/>
<path d="M44.6644 86.4414H41.755V89.3508H44.6644V86.4414Z" fill="white"/>
<path d="M47.4895 86.4414H44.5801V89.3508H47.4895V86.4414Z" fill="white"/>
<path d="M53.1398 86.4414H50.2304V89.3508H53.1398V86.4414Z" fill="white"/>
<path d="M55.961 86.4414H53.0516V89.3508H55.961V86.4414Z" fill="white"/>
<path d="M58.7861 86.4414H55.8767V89.3508H58.7861V86.4414Z" fill="white"/>
<path d="M61.6112 86.4414H58.7018V89.3508H61.6112V86.4414Z" fill="white"/>
<path d="M70.0865 86.4414H67.1771V89.3508H70.0865V86.4414Z" fill="white"/>
<path d="M78.5579 86.4414H75.6485V89.3508H78.5579V86.4414Z" fill="white"/>
<path d="M84.2082 86.4414H81.2988V89.3508H84.2082V86.4414Z" fill="white"/>
<path d="M92.6835 86.4414H89.7741V89.3508H92.6835V86.4414Z" fill="white"/>
<path d="M41.8392 89.2656H38.9298V92.175H41.8392V89.2656Z" fill="white"/>
<path d="M44.6644 89.2655H41.755V92.1749H44.6644V89.2655Z" fill="white"/>
<path d="M50.3146 89.2655H47.4052V92.1749H50.3146V89.2655Z" fill="white"/>
<path d="M53.1398 89.2655H50.2304V92.1749H53.1398V89.2655Z" fill="white"/>
<path d="M61.6112 89.2655H58.7018V92.1749H61.6112V89.2655Z" fill="white"/>
<path d="M64.4365 89.2656H61.5271V92.175H64.4365V89.2656Z" fill="white"/>
<path d="M67.2612 89.2656H64.3518V92.175H67.2612V89.2656Z" fill="white"/>
<path d="M70.0865 89.2655H67.1771V92.1749H70.0865V89.2655Z" fill="white"/>
<path d="M72.9116 89.2655H70.0022V92.1749H72.9116V89.2655Z" fill="white"/>
<path d="M75.7367 89.2655H72.8273V92.1749H75.7367V89.2655Z" fill="white"/>
<path d="M78.5579 89.2655H75.6485V92.1749H78.5579V89.2655Z" fill="white"/>
<path d="M84.2082 89.2655H81.2988V92.1749H84.2082V89.2655Z" fill="white"/>
<path d="M92.6835 89.2655H89.7741V92.1749H92.6835V89.2655Z" fill="white"/>
<path d="M47.4895 92.0906H44.5801V95H47.4895V92.0906Z" fill="white"/>
<path d="M50.3146 92.0906H47.4052V95H50.3146V92.0906Z" fill="white"/>
<path d="M55.961 92.0906H53.0516V95H55.961V92.0906Z" fill="white"/>
<path d="M70.0865 92.0906H67.1771V95H70.0865V92.0906Z" fill="white"/>
<path d="M72.9116 92.0906H70.0022V95H72.9116V92.0906Z" fill="white"/>
<path d="M75.7367 92.0906H72.8273V95H75.7367V92.0906Z" fill="white"/>
<path d="M84.2082 92.0906H81.2988V95H84.2082V92.0906Z" fill="white"/>
<path d="M89.8584 92.0906H86.949V95H89.8584V92.0906Z" fill="white"/>
<path d="M13.5078 13.0004V32.7731H33.2805V13.0004H13.5078ZM30.4558 29.9485H16.3325V15.8251H30.4558V29.9485Z" fill="white"/>
<path d="M75.6466 13.0004V32.7731H95.4193V13.0004H75.6466ZM92.5946 29.9484H78.4713V15.8251H92.5946V29.9484Z" fill="white"/>
<path d="M13.5078 75.1414V94.9141H33.2805V75.1414H13.5078ZM30.4558 92.0894H16.3325V77.9661H30.4558V92.0894Z" fill="white"/>
<path d="M27.6329 18.6496H19.159V27.1236H27.6329V18.6496Z" fill="white"/>
<path d="M89.7717 18.6496H81.2977V27.1236H89.7717V18.6496Z" fill="white"/>
<path d="M27.6329 80.7926H19.159V89.2666H27.6329V80.7926Z" fill="white"/>
</svg>
